<svg xmlns="http://www.w3.org/2000/svg" width="26" height="26" viewBox="0 0 26 26">
  <path id="shopping-cart" d="M17.333,22.333A2.667,2.667,0,1,0,20,19.667,2.666,2.666,0,0,0,17.333,22.333ZM4,22.333a2.667,2.667,0,1,0,2.667-2.667A2.667,2.667,0,0,0,4,22.333ZM8.729,15.9,23.487,11.68A.752.752,0,0,0,24,11V3.667H5.333V1.533A.535.535,0,0,0,4.8,1H.532A.535.535,0,0,0,0,1.533V3.667H2.667L5.213,15.609l.12,1.257v2.2a.536.536,0,0,0,.533.533h17.6A.537.537,0,0,0,24,19.065V17H9C7.469,17,7.437,16.265,8.729,15.9Z" transform="translate(1)" fill="none" stroke="current" stroke-width="2" />
</svg>