<svg xmlns="http://www.w3.org/2000/svg" width="18" height="18" viewBox="0 0 18 18">
  <path id="instagram-with-circle" d="M13.054,6.635a1.552,1.552,0,0,0-.89-.89,2.593,2.593,0,0,0-.87-.161c-.494-.023-.643-.027-1.894-.027s-1.4,0-1.894.027a2.593,2.593,0,0,0-.87.161,1.552,1.552,0,0,0-.89.89,2.593,2.593,0,0,0-.161.87C5.562,8,5.557,8.148,5.557,9.4s0,1.4.027,1.894a2.593,2.593,0,0,0,.161.87,1.552,1.552,0,0,0,.89.89,2.593,2.593,0,0,0,.87.161c.494.022.642.027,1.894.027s1.4,0,1.894-.027a2.593,2.593,0,0,0,.87-.161,1.552,1.552,0,0,0,.89-.89,2.593,2.593,0,0,0,.161-.87c.023-.494.027-.643.027-1.894s0-1.4-.027-1.894A2.593,2.593,0,0,0,13.054,6.635ZM9.4,11.807A2.407,2.407,0,1,1,11.807,9.4,2.407,2.407,0,0,1,9.4,11.807ZM11.9,7.46a.563.563,0,1,1,.563-.562.562.562,0,0,1-.562.563Zm-.94,1.94A1.563,1.563,0,1,1,9.4,7.837,1.563,1.563,0,0,1,10.963,9.4ZM9.4.4a9,9,0,1,0,9,9,9,9,0,0,0-9-9Zm4.659,10.933a3.441,3.441,0,0,1-.218,1.138,2.4,2.4,0,0,1-1.371,1.371,3.441,3.441,0,0,1-1.138.218c-.5.023-.66.028-1.933.028s-1.433-.005-1.933-.028a3.441,3.441,0,0,1-1.138-.218,2.4,2.4,0,0,1-1.371-1.371,3.441,3.441,0,0,1-.218-1.138c-.023-.5-.028-.66-.028-1.933s.005-1.433.028-1.933a3.441,3.441,0,0,1,.218-1.138A2.4,2.4,0,0,1,6.329,4.959a3.441,3.441,0,0,1,1.138-.218c.5-.023.66-.028,1.933-.028s1.433.005,1.933.028a3.441,3.441,0,0,1,1.138.218,2.4,2.4,0,0,1,1.371,1.371,3.441,3.441,0,0,1,.218,1.138c.023.5.028.66.028,1.933s-.005,1.433-.028,1.933Z" transform="translate(-0.4 -0.4)" fill="#4a5568" />
</svg>