<svg xmlns="http://www.w3.org/2000/svg" width="18" height="18" viewBox="0 0 18 18">
<path id="pinterest-with-circle" d="M9.4.4a9,9,0,1,0,9,9A9,9,0,0,0,9.4.4Zm.616,11.133a2.575,2.575,0,0,1-1.271-.6c-.248,1.3-.552,2.555-1.452,3.208-.278-1.973.407-3.452.726-5.024-.543-.914.065-2.753,1.21-2.3,1.409.559-1.221,3.4.545,3.754,1.843.369,2.6-3.2,1.453-4.358C9.574,4.533,6.42,6.17,6.808,8.568c.094.586.7.764.242,1.573C5.993,9.907,5.677,9.074,5.718,7.963A3.554,3.554,0,0,1,8.926,4.695c1.99-.221,3.858.73,4.117,2.6C13.332,9.411,12.143,11.7,10.016,11.533Z" transform="translate(-0.4 -0.4)" fill="#4a5568" />
</svg>