<svg xmlns="http://www.w3.org/2000/svg" width="18" height="18" viewBox="0 0 18 18">
<path id="twitter-with-circle" d="M9.4.4a9,9,0,1,0,9,9A9,9,0,0,0,9.4.4Zm3.661,7.372c0,.077,0,.154,0,.229a5.04,5.04,0,0,1-7.76,4.248,3.486,3.486,0,0,0,.423.023,3.55,3.55,0,0,0,2.2-.758,1.776,1.776,0,0,1-1.656-1.23,1.846,1.846,0,0,0,.333.031,1.781,1.781,0,0,0,.467-.062A1.774,1.774,0,0,1,5.652,8.515V8.493a1.778,1.778,0,0,0,.8.222,1.777,1.777,0,0,1-.548-2.368A5.04,5.04,0,0,0,9.56,8.2,1.747,1.747,0,0,1,9.514,7.8a1.773,1.773,0,0,1,3.067-1.212,3.56,3.56,0,0,0,1.125-.43,1.781,1.781,0,0,1-.779.982,3.561,3.561,0,0,0,1.018-.28A3.594,3.594,0,0,1,13.061,7.772Z" transform="translate(-0.4 -0.4)" fill="#4a5568" />
</svg>